<?xml version="1.0" encoding="utf-8"?>
<!-- Generator: Adobe Illustrator 23.1.0, SVG Export Plug-In . SVG Version: 6.00 Build 0)  -->
<svg version="1.1" id="Layer_1" xmlns="http://www.w3.org/2000/svg" xmlns:xlink="http://www.w3.org/1999/xlink" x="0px" y="0px"
	 viewBox="0 0 512 512" style="enable-background:new 0 0 512 512;" xml:space="preserve">
<g>
	<g>
		<path d="M351.2,302.8V28.6l-0.1,0c0.3-2.4-0.2-5-1.5-7.2c-3.2-5.2-10-6.8-15.1-3.6c-44.9,27.7-71.7,75.8-71.7,128.6c0,0,0,0,0,0
			v144.1c0,12.6,10.1,22.9,22.6,23.3v149c0,18.1,14.8,32.9,32.9,32.9s32.9-14.8,32.9-32.9L351.2,302.8
			C351.2,302.8,351.2,302.8,351.2,302.8z M286.1,291.8c-0.7,0-1.4-0.6-1.4-1.4V146.4c0,0,0,0,0,0c0-38.1,16.3-73.3,44.5-97.6v243
			H286.1z M329.2,462.8c0,6-4.9,10.9-10.9,10.9c-6,0-10.9-4.9-10.9-10.9V313.8h21.8L329.2,462.8L329.2,462.8z"/>
	</g>
</g>
<g>
	<g>
		<path d="M201.9,15.4c-6.1,0-11,4.9-11,11v125h-28v-125c0-6.1-4.9-11-11-11c-6.1,0-11,4.9-11,11v125h-28v-125c0-6.1-4.9-11-11-11
			c-6.1,0-11,4.9-11,11v159.2c0,17.9,14.6,32.5,32.5,32.5h2l-15.4,232c-0.8,11.6,3.3,23.1,11.3,31.5c7.9,8.5,19.1,13.3,30.7,13.3
			c11.6,0,22.8-4.9,30.7-13.3c7.9-8.5,12-20,11.3-31.5l-15.4-232h2c17.9,0,32.5-14.6,32.5-32.5V26.4C212.9,20.3,208,15.4,201.9,15.4
			z M166.5,466.7c-3.8,4.1-9,6.4-14.7,6.4s-10.8-2.3-14.7-6.4c-3.8-4.1-5.7-9.4-5.4-15l15.5-233.5h9l15.5,233.5
			C172.3,457.2,170.4,462.6,166.5,466.7z M190.9,185.6c0,5.8-4.7,10.5-10.5,10.5h-43.7c0,0,0,0,0,0h-13.3c-5.8,0-10.5-4.7-10.5-10.5
			v-12.3h78.1V185.6z"/>
	</g>
</g>
</svg>
