<?xml version="1.0" encoding="utf-8"?>
<!-- Generator: Adobe Illustrator 23.1.0, SVG Export Plug-In . SVG Version: 6.00 Build 0)  -->
<svg version="1.1" id="Laag_1" xmlns="http://www.w3.org/2000/svg" xmlns:xlink="http://www.w3.org/1999/xlink" x="0px" y="0px"
	 viewBox="0 0 512 512" style="enable-background:new 0 0 512 512;" xml:space="preserve">
<style type="text/css">
	.st0{fill:none;}
</style>
<g>
	<path class="st0" d="M310.3,39.4c1.3,0,2.4-1.1,2.4-2.4V17.3c0-1.3-1.1-2.4-2.4-2.4H202c-1.3,0-2.4,1.1-2.4,2.4V37
		c0,1.3,1.1,2.4,2.4,2.4H310.3z"/>
	<path class="st0" d="M301.2,240.6c-3-5.7-4.6-12-4.6-18.4V54.4h-80.9v167.8c0,6.4-1.6,12.8-4.6,18.4L175.6,307h12.7
		c4.1,0,7.5,3.4,7.5,7.5s-3.4,7.5-7.5,7.5h-20.7l-13.8,25.8h12.7c4.1,0,7.5,3.4,7.5,7.5s-3.4,7.5-7.5,7.5h-20.7L132,388.7h12.7
		c4.1,0,7.5,3.4,7.5,7.5s-3.4,7.5-7.5,7.5H124l-13.8,25.8h12.7c4.1,0,7.5,3.4,7.5,7.5s-3.4,7.5-7.5,7.5h-20.7l-15.3,28.6
		c-2.7,5.1-2.6,11.1,0.4,16c3,4.9,8.2,7.9,13.9,7.9h172.3h0.2H411c5.8,0,11-3,13.9-7.9s3.1-10.9,0.4-16L301.2,240.6z"/>
	<path d="M438.5,466L314.4,233.5c-1.9-3.5-2.8-7.4-2.8-11.4V54.3c9-0.7,16.1-8.1,16.1-17.3V17.3c0-9.6-7.8-17.3-17.3-17.3H202
		c-9.6,0-17.3,7.8-17.3,17.3V37c0,9.1,7.1,16.6,16.1,17.3v167.8c0,4-1,7.9-2.8,11.4l-41.3,77.4c0,0,0,0,0,0l-43.6,81.6c0,0,0,0,0,0
		l-21.8,40.8c0,0,0,0,0,0.1L73.7,466c-5.2,9.8-4.9,21.3,0.8,30.8S90.2,512,101.3,512h172.3h6.7H411c11.1,0,21.1-5.7,26.8-15.2
		S443.8,475.8,438.5,466z M199.6,37V17.3c0-1.3,1.1-2.4,2.4-2.4h108.3c1.3,0,2.4,1.1,2.4,2.4V37c0,1.3-1.1,2.4-2.4,2.4H202
		C200.7,39.4,199.6,38.3,199.6,37z M424.9,489.1c-3,4.9-8.2,7.9-13.9,7.9H273.8h-0.2H101.3c-5.8,0-11-3-13.9-7.9
		c-3-4.9-3.1-10.9-0.4-16l15.3-28.6h20.7c4.1,0,7.5-3.4,7.5-7.5s-3.4-7.5-7.5-7.5h-12.7l13.8-25.8h20.7c4.1,0,7.5-3.4,7.5-7.5
		s-3.4-7.5-7.5-7.5H132l13.8-25.8h20.7c4.1,0,7.5-3.4,7.5-7.5s-3.4-7.5-7.5-7.5h-12.7l13.8-25.8h20.7c4.1,0,7.5-3.4,7.5-7.5
		s-3.4-7.5-7.5-7.5h-12.7l35.5-66.4c3-5.7,4.6-12,4.6-18.4V54.4h80.9v167.8c0,6.4,1.6,12.8,4.6,18.4l124.1,232.5
		C428,478.2,427.9,484.2,424.9,489.1z"/>
</g>
</svg>
