<?xml version="1.0" encoding="utf-8"?>
<!-- Generator: Adobe Illustrator 23.1.0, SVG Export Plug-In . SVG Version: 6.00 Build 0)  -->
<svg version="1.1" id="Capa_1" xmlns="http://www.w3.org/2000/svg" xmlns:xlink="http://www.w3.org/1999/xlink" x="0px" y="0px"
	 viewBox="0 0 512 512" style="enable-background:new 0 0 512 512;" xml:space="preserve">
<style type="text/css">
	.st0{fill:none;}
</style>
<g>
	<path class="st0" d="M236.5,314.8c0,0.1,0,0.1-0.1,0.2c0,0.2,0,0.4,0,0.5c0-0.2,0-0.3,0-0.5C236.4,314.9,236.5,314.8,236.5,314.8z"
		/>
	<path class="st0" d="M371,306c-11.5-8.7-23.3-18.8-35-30.1c-12.1-0.9-24.4-1.4-36.8-1.4c-37.5,0-73.9,4.3-102.5,12.2
		c-5.7,1.6-11.1,3.3-16,5.1c-0.3,0.1-0.9,0.3-0.9,1.3c0,1,0.7,1.2,0.9,1.3c4.9,1.8,10.3,3.5,16,5.1c2,0.5,11.2,2.5,20.9,4.3
		c11.7,2.1,24.3,4.1,27.8,4.8c17.3,2,35.4,3.1,53.8,3.1C324.4,311.6,348.8,309.7,371,306z"/>
	<path class="st0" d="M244.9,223.8c-35.8-43-72.1-77.2-85.4-89.3l-52,53c8.8,9.3,29.1,30.1,55.6,53.7
		C164,240.9,206.8,228.5,244.9,223.8z"/>
	<path class="st0" d="M56.6,112.3c2.9-3,7.6-3,10.6-0.1l47.5,46.5l16.2-16.6L83.5,95.7c-3-2.9-3-7.6-0.1-10.6c2.9-3,7.6-3,10.6-0.1
		l47.5,46.5l9.2-9.4c-3.2-9.3-25.3-43.8-33.1-56.7c-0.1-0.1-0.2-0.3-0.4-0.4c-3.1-3.8-6.4-8.5-9.7-12.1c-3.6-3.9-8.5-6.1-13.8-6.2
		c-5.3-0.1-10.3,1.9-14,5.7l-55.7,56.9c-3.7,3.8-5.7,8.8-5.5,14.1c0.2,5.3,2.5,10.2,6.5,13.7C40.8,151,65.5,169.2,95,178.9l9.2-9.4
		l-47.5-46.5C53.8,120,53.7,115.3,56.6,112.3z"/>
	<path class="st0" d="M299.3,365c-50.3,0-97.7-6.9-133.5-19.3c-11.4-4-21.2-8.4-29.4-13.2l6.2,15.3c5.3,13,16,22.9,29.4,27.2
		c22.3,7.1,62.4,15.6,127.3,15.6c68.3,0,109.4-9.3,131.8-17.1c10.7-3.7,19.3-11.8,23.5-22.2l6.4-15.6c-3.2,1.5-6.8,2.6-10.6,3.1
		C413.9,354.4,356.7,365,299.3,365z"/>
	<path class="st0" d="M347.1,403.9l87.4,85.9c4.7,4.6,10.7,7.2,16.9,7.2c0,0,0.1,0,0.1,0c6.3,0,12.2-2.6,17.1-7.6
		c9.8-10,9.6-24.3-0.3-34l-61-59.8C391.5,399,371.7,402.1,347.1,403.9z"/>
	<path class="st0" d="M326,33.5C306.9,21.3,290.1,15,278.1,15c-5.3,0-9.7,1.2-12.9,3.8c-10.5,8.3-10.4,31.7,0.3,62.5
		c11.9,34.2,35.1,74.1,65.3,112.3c30.2,38.2,63.7,70,94.2,89.4c27.5,17.5,50.3,23.1,60.8,14.8c21.1-16.7-0.6-92.6-65.6-174.9
		C390.1,84.7,356.6,53,326,33.5z"/>
	<path class="st0" d="M319.1,202.9c-31.2-39.5-55.2-80.9-67.7-116.7c-6.7-19.3-9.6-36.1-8.8-49.6l-5.9,4.7
		c-21.1,16.7,0.6,92.6,65.6,174.9c30.2,38.2,63.7,70,94.2,89.4c27.5,17.5,50.3,23.1,60.8,14.8l5.9-4.7c-13.3-2.3-29-9-46.2-20
		C385.1,275.3,350.3,242.4,319.1,202.9z"/>
	<g>
		<path class="st0" d="M419.7,334.2c0.1,0,0.1-0.1,0-0.2c-9.6-3.5-20-8.8-31.2-15.9c-0.1-0.1-0.2-0.1-0.3-0.2
			c-26.7,5.6-57.4,8.5-89,8.5c-19.2,0-38-1.5-56.2-3.7c0.5,0.2-0.6-0.1,0,0c-9-1.7-45.5-8.4-49.6-9.5c-5.8-1.6-11.9-2.9-17-4.6
			c-7.3-2.5-12.3-9.4-11.7-17.1c0.5-6.4,4.6-11.8,10.7-14c5.3-1.9,11.1-3.8,17.2-5.5c29.9-8.2,67.7-12.7,106.5-12.7
			c7,0,13.9,0.2,20.8,0.4c0.1,0,0.1-0.1,0.1-0.1c-6.9-7.4-13.8-15.1-20.5-23.2c0,0,0,0-0.1,0c-46.8,0.5-96.2,6.6-128.9,18
			c-30.8,10.7-49.3,25.1-49.3,38.5c0,27,73,57,177.8,57C344.4,350,386.9,344.4,419.7,334.2z"/>
		<path class="st0" d="M163.2,241.2c1.7-0.5,43.9-12.7,81.5-17.4c0.1,0,0.1-0.1,0.1-0.1c-35.7-42.9-71.9-77-85.3-89.1
			c0,0-0.1,0-0.1,0l-51.8,52.9c0,0,0,0.1,0,0.1C116.4,196.9,136.7,217.6,163.2,241.2C163.2,241.2,163.2,241.2,163.2,241.2z"/>
		<path class="st0" d="M56.7,122.9c-3-2.9-3-7.6-0.1-10.6c2.9-3,7.6-3,10.6-0.1l47.4,46.5c0,0,0.1,0,0.1,0l16.1-16.4
			c0,0,0-0.1,0-0.1L83.5,95.7c-3-2.9-3-7.6-0.1-10.6c2.9-3,7.6-3,10.6-0.1l47.4,46.5c0,0,0.1,0,0.1,0l9.1-9.3c0,0,0-0.1,0-0.1
			c-3.3-9.4-25.3-43.7-33.1-56.7c-0.1-0.1-0.2-0.3-0.4-0.4c-3.1-3.8-6.4-8.5-9.7-12.1c-3.6-3.9-8.5-6.1-13.8-6.2
			c-5.3-0.1-10.3,1.9-14,5.7l-55.7,56.9c-3.9,4-5.9,9.3-5.4,15c0.4,5.1,3,9.8,6.9,13.2c15.9,13.9,40.4,31.9,69.6,41.4
			c0,0,0.1,0,0.1,0l9.1-9.3c0,0,0-0.1,0-0.1L56.7,122.9z"/>
		<path class="st0" d="M196.7,286.7c-5.7,1.6-11.1,3.3-16,5.1c-0.3,0.1-0.9,0.3-0.9,1.3c0,1,0.7,1.2,0.9,1.3
			c4.9,1.8,10.3,3.5,16,5.1c2,0.5,11.2,2.5,20.9,4.3c11.7,2.1,24.3,4.1,27.8,4.8c0,0,0,0,0,0c17.3,2,35.4,3.1,53.8,3.1
			c25,0,49.4-1.9,71.5-5.5c0.1,0,0.1-0.1,0-0.2c-11.5-8.7-23.2-18.7-34.8-30c0,0,0,0-0.1,0c-12.1-0.9-24.4-1.4-36.7-1.4
			C261.8,274.5,225.4,278.8,196.7,286.7z"/>
		<path class="st0" d="M460.7,335.7c-3.2,1.5-6.6,2.5-10.4,3c0,0,0,0,0,0c-36.4,15.7-93.6,26.3-151.1,26.3
			c-50.3,0-97.7-6.9-133.5-19.3c-11.3-3.9-21-8.3-29.2-13.1c-0.1,0-0.1,0-0.1,0.1l6.1,15.1c5.3,13,16,22.9,29.4,27.2
			c22.3,7.1,62.4,15.6,127.3,15.6c68.3,0,109.4-9.3,131.8-17.1c10.7-3.7,19.3-11.8,23.5-22.2l6.3-15.4
			C460.9,335.7,460.8,335.7,460.7,335.7z"/>
		<path class="st0" d="M407.2,395.6c-15.7,3.4-35.5,6.5-59.9,8.3c-0.1,0-0.1,0.1-0.1,0.1l87.3,85.7c4.7,4.6,10.7,7.2,16.9,7.2
			c0,0,0.1,0,0.1,0c6.3,0,12.2-2.6,17.1-7.6c9.8-10,9.6-24.3-0.3-34L407.2,395.6C407.2,395.6,407.2,395.6,407.2,395.6z"/>
		<path class="st0" d="M326,33.5C306.9,21.3,290.1,15,278.1,15c-5.3,0-9.7,1.2-12.9,3.8c-10.5,8.3-10.4,31.7,0.3,62.5
			c11.9,34.2,35.1,74.1,65.3,112.3c30.2,38.2,63.7,70,94.2,89.4c27.5,17.5,50.3,23.1,60.8,14.8c21.1-16.7-0.6-92.6-65.6-174.9
			C390.1,84.7,356.6,53,326,33.5z"/>
		<path class="st0" d="M417,295.7c-32-20.3-66.7-53.3-98-92.8c-31.2-39.5-55.2-80.9-67.7-116.7c-6.7-19.2-9.6-35.9-8.8-49.4
			c0-0.1-0.1-0.1-0.1-0.1l-5.8,4.5c-21.1,16.7,0.6,92.6,65.6,174.9c30.2,38.2,63.7,70,94.2,89.4c27.5,17.5,50.3,23.1,60.8,14.8
			l5.8-4.6c0.1,0,0-0.1,0-0.1C449.8,313.3,434.2,306.6,417,295.7z"/>
		<path d="M243.1,322.9C242.5,322.9,243.6,323.1,243.1,322.9L243.1,322.9z"/>
		<path d="M499.7,230.3c-12.4-35.8-36.5-77.2-67.7-116.7c-31.2-39.5-66-72.4-98-92.8C299.9-0.9,272.2-5.8,256,7l-28.5,22.5
			c-16.2,12.8-17.8,40.9-4.5,79.2c12,34.5,34.7,74.2,64.2,112.3c0,0.1,0,0.1-0.1,0.1c-8.1,0.2-16.1,0.5-24,1.1c0,0,0,0-0.1,0
			c-42.7-52.8-88.4-94.4-97.3-102.4c0,0,0,0,0,0c-3.8-11.4-28-50.1-35.9-63.4c-0.2-0.5-0.5-1-0.9-1.5c0,0,0,0,0-0.1
			c-0.2-0.4-0.4-0.5-0.4-0.5c-3.1-3.8-6.6-7.9-9.9-11.6c-6.4-7-15.1-10.9-24.6-11.1c-9.5-0.2-18.3,3.5-24.9,10.2L13.2,98.7
			c-6.6,6.8-10.1,15.7-9.7,25.1c0.4,9.5,4.5,18.1,11.6,24.4c17.4,15.3,44.9,35.5,78,45.7c0,0,0,0,0,0c5.4,5.8,25.9,27.5,54.6,53.5
			c0,0.1,0,0.1,0,0.1c-26.8,12.5-41.2,28.3-41.2,45.4c0,4.6,1,9.1,3.1,13.4c0,0.1,0.1,0.2,0.1,0.3l19.1,46.7
			c7,17.1,21.1,30.2,38.7,35.8c23.3,7.4,65,16.3,131.9,16.3c9.8,0,19-0.2,27.7-0.5c0,0,0,0,0.1,0l97,95.4
			c7.5,7.4,17.2,11.5,27.3,11.5c0.1,0,0.1,0,0.2,0c10.3,0,20.2-4.3,27.8-12.1c15.6-15.9,15.4-39.7-0.5-55.2l-54.3-53.2
			c0-0.1,0-0.1,0-0.1c4.3-1.2,8.1-2.4,11.5-3.6c14.8-5.1,26.6-16.3,32.5-30.8l15.8-38.7c0,0,0,0,0,0l10.9-8.6c0,0,0,0,0,0
			C511.4,296.7,513,268.6,499.7,230.3z M95.1,178.8C95,178.8,95,178.8,95.1,178.8c-29.3-9.5-53.8-27.5-69.7-41.4
			c-3.9-3.4-6.5-8.1-6.9-13.2c-0.5-5.6,1.5-11,5.4-15l55.7-56.9c3.7-3.8,8.7-5.8,14-5.7c5.3,0.1,10.2,2.3,13.8,6.2
			c3.3,3.6,6.7,8.4,9.7,12.1c0.1,0.1,0.2,0.3,0.4,0.4c7.8,12.9,29.8,47.3,33.1,56.7c0,0,0,0.1,0,0.1l-9.1,9.3c0,0-0.1,0-0.1,0L94,85
			c-3-2.9-7.7-2.9-10.6,0.1c-2.9,3-2.9,7.7,0.1,10.6l47.4,46.5c0,0,0,0.1,0,0.1l-16.1,16.4c0,0-0.1,0-0.1,0l-47.4-46.5
			c-3-2.9-7.7-2.9-10.6,0.1c-2.9,3-2.9,7.7,0.1,10.6l47.4,46.5c0,0,0,0.1,0,0.1L95.1,178.8z M107.6,187.6c0,0,0-0.1,0-0.1
			c1.8-1.8,50.1-51.1,51.9-52.9c0,0,0.1,0,0.1,0c13.3,12.1,49.6,46.3,85.3,89.1c0,0.1,0,0.1-0.1,0.1c-37.7,4.7-79.8,16.9-81.5,17.4
			c0,0,0,0-0.1,0C136.7,217.6,116.4,196.9,107.6,187.6z M121.4,293c0-13.4,18.4-27.8,49.3-38.5c32.7-11.4,82.1-17.4,128.9-18
			c0,0,0,0,0.1,0c6.7,8.1,13.6,15.8,20.5,23.2c0.1,0.1,0,0.1-0.1,0.1c-6.9-0.3-13.9-0.4-20.8-0.4c-38.8,0-76.6,4.5-106.5,12.7
			c-6.1,1.7-11.9,3.5-17.2,5.5c-6.1,2.2-10.2,7.6-10.7,14c-0.6,7.7,4.4,14.6,11.7,17.1c5.1,1.8,11.2,3,17,4.6
			c4.1,1.1,40.6,7.9,49.6,9.5c0,0,0,0,0,0c18.1,2.2,37,3.7,56.2,3.7c31.6,0,62.3-3,89-8.5c0.1,0.1,0.2,0.1,0.3,0.2
			c11.1,7.1,21.6,12.4,31.2,15.9c0.1,0,0.1,0.1,0,0.2c-32.8,10.1-75.3,15.8-120.4,15.8C194.5,350,121.4,320,121.4,293z M336,275.9
			C336,275.9,336,275.9,336,275.9c11.7,11.3,23.4,21.3,34.8,30c0.1,0,0,0.1,0,0.2c-22.1,3.6-46.5,5.5-71.6,5.5
			c-18.4,0-36.5-1-53.8-3.1c0,0,0,0,0,0c-3.5-0.7-16.1-2.7-27.8-4.8c-9.8-1.8-18.9-3.8-20.9-4.3c-5.7-1.6-11.1-3.3-16-5.1
			c-0.3-0.1-0.9-0.3-0.9-1.3c0-1,0.7-1.2,0.9-1.3c4.9-1.8,10.3-3.5,16-5.1c28.6-7.9,65-12.2,102.5-12.2
			C311.6,274.5,324,275,336,275.9z M468.2,455.4c10,9.8,10.1,24.1,0.3,34c-4.9,5-10.8,7.6-17.1,7.6c0,0-0.1,0-0.1,0
			c-6.1,0-12.1-2.6-16.9-7.2L347.3,404c-0.1-0.1,0-0.1,0.1-0.1c24.4-1.8,44.1-4.8,59.9-8.3c0,0,0,0,0.1,0L468.2,455.4z M454.6,351.2
			c-4.3,10.4-12.8,18.5-23.5,22.2c-22.4,7.8-63.5,17.1-131.8,17.1c-64.9,0-105.1-8.5-127.3-15.6c-13.4-4.3-24.1-14.2-29.4-27.2
			l-6.1-15.1c0-0.1,0-0.1,0.1-0.1c8.2,4.8,17.9,9.2,29.2,13.1c35.8,12.4,83.2,19.3,133.5,19.3c57.4,0,114.6-10.6,151.1-26.3
			c0,0,0,0,0,0c3.8-0.5,7.2-1.5,10.4-3c0.1,0,0.1,0,0.1,0.1L454.6,351.2z M463.1,315.8l-5.8,4.6c-10.5,8.3-33.2,2.8-60.8-14.8
			c-30.6-19.5-64-51.2-94.2-89.4c-65-82.2-86.7-158.1-65.6-174.9l5.8-4.5c0.1,0,0.1,0,0.1,0.1c-0.8,13.5,2.1,30.1,8.8,49.4
			c12.4,35.8,36.5,77.2,67.7,116.7c31.2,39.5,66,72.4,98,92.8c17.2,10.9,32.8,17.6,46,19.9C463.1,315.6,463.2,315.7,463.1,315.8z
			 M485.8,297.8c-10.5,8.3-33.2,2.8-60.8-14.8c-30.6-19.5-64-51.2-94.2-89.4c-30.2-38.2-53.4-78.1-65.3-112.3
			c-10.7-30.8-10.8-54.2-0.3-62.5c3.2-2.5,7.6-3.8,12.9-3.8c12,0,28.8,6.4,47.9,18.5c30.6,19.5,64,51.2,94.2,89.4
			C485.3,205.1,507,281.1,485.8,297.8z"/>
	</g>
</g>
</svg>
