<?xml version="1.0" encoding="utf-8"?>
<!-- Generator: Adobe Illustrator 23.1.0, SVG Export Plug-In . SVG Version: 6.00 Build 0)  -->
<svg version="1.1" xmlns="http://www.w3.org/2000/svg" xmlns:xlink="http://www.w3.org/1999/xlink" x="0px" y="0px"
	 viewBox="0 0 511 511" style="enable-background:new 0 0 511 511;" xml:space="preserve">
<style type="text/css">
	.st0{stroke:#000000;stroke-width:4;stroke-miterlimit:10;}
	.st1{fill:none;stroke:#000000;stroke-width:4;stroke-miterlimit:10;}
</style>
<g id="Laag_1">
	<polygon class="st0" points="129.4,291.6 171.7,334 181,324.6 151,294.4 137.7,294.8 	"/>
	<g>
		<path class="st1" d="M217.7,202.6l-78.9,79.7l14,14c2.6,2.6,2.6,6.8,0,9.3c-2.6,2.6-6.8,2.6-9.3,0l-14-14L62,358.3
			c-12.1,12.1-18.8,28.2-18.8,45.4c0,17.1,6.7,33.3,18.8,45.4c25,25,65.7,25,90.8,0l67.4-66.7l-58.1-58.1c-2.6-2.6-2.6-6.8,0-9.3
			c2.6-2.6,6.8-2.6,9.3,0l58.1,58.1c84.8-85.6,83.6-83.4,88.8-92.4l0.1-0.1c0,0,0.1-0.1,0.1-0.1l0.1-0.1c13-22.4,11.1-51.3-4.9-71.7
			C289.1,177.1,244.1,176.1,217.7,202.6z"/>
		<path class="st1" d="M319.2,194.7l53.8-53.8L293.4,62c-25-25-65.8-25-90.8,0c-25,25-25,65.7,0,90.8l10.2,10.2
			c0.3,0.3,0.6,0.7,0.8,1l15,14.8C258.1,164,295,169.2,319.2,194.7z"/>
		<path class="st1" d="M449.1,217.7l-66.7-67.4l-54.8,54.8c7.5,11.2,11.9,24.2,12.8,37.8c0.9,13.7-1.8,27.3-7.9,39.4
			c19.5,19.5,11.7,11.5,25.9,26.2c25,25,65.7,25,90.7,0C474.1,283.4,474.1,242.7,449.1,217.7z"/>
	</g>
	<g>
		<path class="st1" d="M449.1,217.7l-66.7-67.4l-54.8,54.8c7.5,11.2,11.9,24.2,12.8,37.8c0.9,13.7-1.8,27.3-7.9,39.4
			c19.5,19.5,11.7,11.5,25.9,26.2c25,25,65.7,25,90.7,0C474.1,283.4,474.1,242.7,449.1,217.7z"/>
		<path class="st1" d="M217.7,202.6l-78.9,79.7l14,14c2.6,2.6,2.6,6.8,0,9.3s-6.8,2.6-9.3,0l-14-14L62,358.3
			c-12.1,12.1-18.8,28.2-18.8,45.4c0,17.1,6.7,33.3,18.8,45.4c25,25,65.7,25,90.8,0l67.4-66.7l-58.1-58.1c-2.6-2.6-2.6-6.8,0-9.3
			c2.6-2.6,6.8-2.6,9.3,0l58.1,58.1c84.8-85.6,83.6-83.4,88.8-92.4l0.1-0.1c0,0,0.1-0.1,0.1-0.1l0.1-0.1c13-22.4,11.1-51.3-4.9-71.7
			C289.1,177.1,244.1,176.1,217.7,202.6z"/>
		<path class="st1" d="M319.2,194.7l53.8-53.8L293.4,62c-25-25-65.8-25-90.8,0c-25,25-25,65.7,0,90.8l10.2,10.2
			c0.3,0.3,0.6,0.7,0.8,1l15,14.8C258.1,164,295,169.2,319.2,194.7z"/>
		<path class="st0" d="M222.3,193.9l9.2-7.8l-21.9-26.2l4.1,4c-0.2-0.4-0.5-0.7-0.8-1l-10.2-10.2c-25-25-25-65.7,0-90.8
			c25-25,65.7-25,90.8,0l79.7,78.9l-53.8,53.8c-24.2-25.5-61.2-30.7-90.6-16l7.3,7.2l-9.7,9l-9.1-9.1c-3.1,2.3-6,4.8-8.8,7.6
			l-83.6,84.4l-72.1,71.4C38,363.6,30,383,30,403.7c0,20.7,8,40.1,22.7,54.7c15.1,15.1,34.9,22.6,54.7,22.6
			c19.8,0,39.6-7.5,54.7-22.6l72.1-71.4c0,0,0,0,0,0c0,0,0,0,0,0c70.1-70.8,85-85.2,91.2-93.1c16.2,16.1,10.8,10.7,23.5,23.8
			c0,0,0,0.1,0.1,0.1c14.6,14.6,34.1,22.7,54.7,22.7c20.7,0,40.1-8,54.7-22.7c30.2-30.2,30.2-79.3,0-109.4l-71.3-72.1c0,0,0,0,0,0
			c0,0,0,0,0,0c0,0,0,0,0,0c0,0,0,0,0,0l-84.3-83.6c-30.2-30.2-79.3-30.2-109.5,0c-30.2,30.2-30.2,79.3,0,109.5l23.6,24.6
			 M318.6,280.2l-0.1,0.1c0,0-0.1,0.1-0.1,0.1l-0.1,0.1c-5.2,9-4,6.9-88.8,92.4l-58.1-58.1c-2.6-2.6-6.8-2.6-9.3,0
			c-2.6,2.6-2.6,6.8,0,9.3l58.1,58.1L152.7,449c-25,25-65.7,25-90.8,0c-12.1-12.1-18.8-28.2-18.8-45.4c0-17.1,6.7-33.3,18.8-45.4
			l67.5-66.7l14,14c2.6,2.6,6.8,2.6,9.3,0s2.6-6.8,0-9.3l-14-14l78.9-79.7c26.4-26.4,71.4-25.4,96,5.9
			C329.7,228.9,331.6,257.7,318.6,280.2z M449.1,308.4c-25,25-65.7,25-90.7,0c-14.2-14.6-6.4-6.7-25.9-26.2
			c6-12.2,8.8-25.7,7.9-39.4c-0.9-13.6-5.3-26.5-12.8-37.8l54.8-54.8l66.7,67.4C474.1,242.7,474.1,283.4,449.1,308.4z"/>
	</g>
	<path class="st0" d="M204.3,179.1"/>
</g>
<g id="Laag_3">
</g>
</svg>
