<?xml version="1.0" encoding="utf-8"?>
<!-- Generator: Adobe Illustrator 23.1.0, SVG Export Plug-In . SVG Version: 6.00 Build 0)  -->
<svg version="1.1" id="Laag_1" xmlns="http://www.w3.org/2000/svg" xmlns:xlink="http://www.w3.org/1999/xlink" x="0px" y="0px"
	 viewBox="0 0 512 512" style="enable-background:new 0 0 512 512;" xml:space="preserve">
<path d="M455.6,123.6c-5.2-3.7-8.3-9.8-8.3-16.2V10c0-5.5-4.5-10-10-10h-51.2c-5.5,0-10,4.5-10,10v97.4c0,6.4-3.1,12.5-8.3,16.2
	c-35.3,25.3-56.4,66.4-56.4,109.9v11.9c-1.7-4.2-3.6-8.3-5.5-12.3c-15.4-32-23.6-67.7-23.6-103.2V20.7c0-11.4-9.3-20.7-20.7-20.7
	h-40C210.3,0,201,9.3,201,20.7v109.3c0,35.5-8.1,71.1-23.5,103.1l0,0.1c-1.9,4-3.7,8.1-5.5,12.2v-37.5c0-35.4-19.8-67.7-50.9-83.9
	V10c0-5.5-4.5-10-10-10H60.9c-5.5,0-10,4.5-10,10v114C19.8,140.1,0,172.4,0,207.8V502c0,5.5,4.5,10,10,10h152c2.6,0,5-1,6.8-2.7
	c3.7,1.7,7.8,2.7,12.2,2.7h121.4c5.9,0,11.4-1.8,16-4.8c3.5,3,8,4.8,13,4.8H492c11,0,20-9,20-20V233.5
	C512,190.1,490.9,149,455.6,123.6z M396.1,100V58.2h31.2V100H396.1z M427.3,20v18.2h-31.2V20H427.3z M221,129.9V68.1h41.3v61.8
	c0,13.2,1.1,26.5,3.1,39.6h-47.5C219.9,156.4,221,143.1,221,129.9z M221,20.7c0-0.4,0.3-0.7,0.7-0.7h40c0.4,0,0.7,0.3,0.7,0.7v27.4
	H221V20.7z M101.1,20v64.6H70.9V20H101.1z M64.9,139.4c3.7-1.6,6-5.2,6-9.2v-25.7h30.3v25.7c0,4,2.4,7.6,6,9.2
	c27.3,11.8,44.9,38.7,44.9,68.4V246H14.4c-5.5,0-11.6,4.5-11.6,10s4.5,10,10.1,10H152v145.8H20v-204C20,178.1,37.6,151.3,64.9,139.4
	z M152,492H20v-60.2h132V492z M302.4,492H181c-5,0-9-4-9-9V344.8c0-35.5,8.1-71.1,23.5-103.1l0-0.1c8-16.6,14.2-34.2,18.4-52.2h55.4
	c4.3,18,10.5,35.6,18.5,52.3c15.4,32,23.6,67.7,23.6,103.2V483C311.4,488,307.4,492,302.4,492z M492,492H331.4V233.5
	c0-37,18-72,48-93.6c6.9-5,12-12,14.6-19.9h35.3c2.6,7.9,7.7,14.9,14.6,19.9c30.1,21.6,48,56.6,48,93.6V492z"/>
<path d="M86,376.5c20.8,0,37.6-16.9,37.6-37.6c0-20.8-16.9-37.6-37.6-37.6s-37.6,16.9-37.6,37.6C48.4,359.7,65.2,376.5,86,376.5z
	 M86,321.3c9.7,0,17.6,7.9,17.6,17.6c0,9.7-7.9,17.6-17.6,17.6s-17.6-7.9-17.6-17.6C68.4,329.2,76.3,321.3,86,321.3z"/>
<path d="M353.4,266v140c0,5.5,4.5,10,10,10H460c5.5,0,10-4.5,10-10v-33c0-5.5-4.5-10-10-10c-5.5,0-10,4.5-10,10v23h-76.6V276H450
	v95.7c0,5.5,4.5,1.5,10,1.5c5.5,0,10,20.2,10,14.7V266c0-5.5-4.5-10-10-10h-96.6C357.9,256,353.4,260.5,353.4,266z"/>
<path d="M281.4,334H202c-5.5,0-10,4.5-10,10v104c0,5.5,4.5,10,10,10h79.3c5.5,0,10-4.5,10-10V344C291.4,338.5,286.9,334,281.4,334z
	 M271.4,438H212v-84h59.3V438z"/>
</svg>
